<svg xmlns="http://www.w3.org/2000/svg" width="500" height="500" viewBox="0 0 500 500">
  <defs>
    <style>
      .cls-1 {
        fill: #a06be6;
        fill-rule: evenodd;
      }
    </style>
  </defs>
  <path id="A" class="cls-1" d="M219.8,347.1a43.944,43.944,0,1,0-12.6-30.8A41.884,41.884,0,0,0,219.8,347.1ZM224,160.9a90.345,90.345,0,0,1,11.55-12.25q7.35-6.645,15.05-6.65t15.05,6.65A153.283,153.283,0,0,1,277.9,160.9L441,378.6q9.795,13.305,26.6,13.3a33.46,33.46,0,0,0,33.6-33.6,30.175,30.175,0,0,0-2.8-12.95,48.332,48.332,0,0,0-7-10.85L321.3,107a81.733,81.733,0,0,0-30.8-25.2,92,92,0,0,0-81.9,1.05Q189,93.005,177.1,109.1L7,338q-7.005,7.712-7,20.3a32.357,32.357,0,0,0,9.8,23.8,32.356,32.356,0,0,0,23.8,9.8q15.389,0,25.9-12.6Z"/>
</svg>
